<?xml version="1.0" encoding="utf-8"?>
<!-- Generator: Adobe Illustrator 26.0.1, SVG Export Plug-In . SVG Version: 6.00 Build 0)  -->
<svg version="1.1" id="Layer_1" xmlns="http://www.w3.org/2000/svg" xmlns:xlink="http://www.w3.org/1999/xlink" x="0px" y="0px"
	 viewBox="0 0 227 28" style="enable-background:new 0 0 227 28;" xml:space="preserve">
<style type="text/css">
	.st0{fill:#3F3F3F;}
	.st1{fill:url(#SVGID_1_);}
	.st2{fill:url(#SVGID_00000016075409732100023780000004817808292095318717_);}
	.st3{fill:url(#SVGID_00000183210894893031335820000011453768104858764420_);}
	.st4{fill:url(#SVGID_00000176754972381229987300000015469472860947068307_);}
	.st5{fill:url(#SVGID_00000159437724079383492100000015048975904797317268_);}
	.st6{fill:url(#SVGID_00000013167735094820910280000005362753524225189514_);}
	.st7{fill:url(#SVGID_00000145042880818037001810000006456026473917192120_);}
	.st8{fill:url(#SVGID_00000177464476076292522390000003085140581416239517_);}
	.st9{fill:url(#SVGID_00000093149759680094432810000012752796077979211669_);}
	.st10{stroke:#000000;stroke-width:0.75;stroke-miterlimit:10;}
	.st11{font-family:'MyriadPro-Regular';}
	.st12{font-size:25.3161px;}
</style>
<path style="fill:none;" d="M54,116.3V94.7h14V98H57.9v5.9h9.4v3.3h-9.4v5.9h10.2v3.3H54z"/>
<path style="fill:none;" d="M75.9,85.3v9.5h-3.8V78.6h3.6v2.8H76c0.4-0.9,1-1.6,1.8-2.2c0.8-0.5,1.8-0.8,3-0.8
	c1.1,0,2.1,0.2,2.9,0.7c0.8,0.5,1.5,1.2,1.9,2.1c0.5,0.9,0.7,2,0.7,3.3v10.3h-3.8v-9.8c0-1.1-0.3-1.9-0.8-2.6
	c-0.6-0.6-1.3-0.9-2.3-0.9c-0.7,0-1.3,0.1-1.8,0.4c-0.5,0.3-0.9,0.7-1.2,1.3C76.1,83.8,75.9,84.5,75.9,85.3z"/>
<path class="st0" d="M91.3,48.5v3H82v-3H91.3z M84.3,44.6h3.8v15.3c0,0.5,0.1,0.9,0.2,1.2c0.2,0.3,0.4,0.5,0.6,0.6
	c0.3,0.1,0.5,0.1,0.9,0.1c0.2,0,0.5,0,0.7-0.1c0.2,0,0.4-0.1,0.5-0.1l0.6,3c-0.2,0.1-0.5,0.1-0.9,0.2c-0.4,0.1-0.8,0.1-1.4,0.1
	c-1,0-1.8-0.1-2.6-0.4C86,64.2,85.4,63.7,85,63c-0.4-0.7-0.7-1.5-0.7-2.5V44.6z"/>
<path class="st0" d="M99.5,66.4V50.2h3.7v2.7h0.2c0.3-0.9,0.8-1.7,1.5-2.2c0.7-0.5,1.5-0.8,2.5-0.8c0.2,0,0.4,0,0.7,0
	c0.3,0,0.5,0,0.7,0.1v3.5c-0.2-0.1-0.4-0.1-0.8-0.1c-0.3,0-0.7-0.1-1-0.1c-0.7,0-1.3,0.2-1.9,0.5c-0.5,0.3-1,0.7-1.3,1.2
	c-0.3,0.5-0.5,1.1-0.5,1.8v9.6H99.5z"/>
<path class="st0" d="M124.7,61.4c-1.6,0-2.9-0.3-4.1-1c-1.2-0.7-2.1-1.7-2.7-2.9c-0.6-1.3-0.9-2.7-0.9-4.4s0.3-3.1,0.9-4.4
	c0.6-1.3,1.5-2.2,2.7-2.9c1.2-0.7,2.5-1,4.1-1s2.9,0.3,4.1,1c1.2,0.7,2,1.7,2.7,2.9c0.6,1.3,1,2.7,1,4.4s-0.3,3.1-1,4.4
	c-0.6,1.3-1.5,2.2-2.7,2.9C127.6,61,126.3,61.4,124.7,61.4z M124.7,58.3c0.9,0,1.6-0.2,2.1-0.7c0.6-0.5,1-1.1,1.3-1.9
	c0.3-0.8,0.4-1.7,0.4-2.7c0-1-0.1-1.9-0.4-2.7c-0.3-0.8-0.7-1.5-1.3-1.9c-0.6-0.5-1.3-0.7-2.1-0.7c-0.9,0-1.6,0.2-2.2,0.7
	c-0.6,0.5-1,1.1-1.3,1.9c-0.3,0.8-0.4,1.7-0.4,2.7c0,1,0.1,1.9,0.4,2.7c0.3,0.8,0.7,1.4,1.3,1.9C123.1,58,123.8,58.3,124.7,58.3z"/>
<path class="st0" d="M134.1,65.6V43.9h3.9v18.4h9.5v3.3H134.1z"/>
<path class="st0" d="M157.3,66.6c-1,0-1.9-0.2-2.8-0.6c-0.8-0.4-1.5-0.9-1.9-1.7c-0.5-0.7-0.7-1.6-0.7-2.7c0-0.9,0.2-1.7,0.5-2.3
	c0.3-0.6,0.8-1.1,1.4-1.4c0.6-0.4,1.2-0.6,2-0.8c0.7-0.2,1.5-0.3,2.3-0.4c0.9-0.1,1.7-0.2,2.3-0.3c0.6-0.1,1-0.2,1.3-0.4
	c0.3-0.2,0.4-0.4,0.4-0.8v-0.1c0-0.8-0.2-1.4-0.7-1.9c-0.5-0.4-1.1-0.7-2-0.7c-0.9,0-1.7,0.2-2.2,0.6c-0.5,0.4-0.9,0.9-1.1,1.4
	l-3.5-0.5c0.3-1,0.7-1.8,1.4-2.5c0.6-0.7,1.4-1.2,2.4-1.5c0.9-0.3,2-0.5,3.1-0.5c0.8,0,1.5,0.1,2.3,0.3c0.8,0.2,1.5,0.5,2.1,0.9
	c0.6,0.4,1.1,1,1.5,1.7c0.4,0.7,0.6,1.6,0.6,2.7v10.9h-3.7V64H162c-0.2,0.5-0.6,0.9-1,1.3c-0.4,0.4-0.9,0.7-1.6,0.9
	C158.8,66.5,158.1,66.6,157.3,66.6z M158.2,63.8c0.8,0,1.4-0.2,2-0.5c0.6-0.3,1-0.7,1.3-1.2c0.3-0.5,0.5-1.1,0.5-1.7v-1.9
	c-0.1,0.1-0.3,0.2-0.6,0.3c-0.3,0.1-0.6,0.2-0.9,0.2c-0.4,0.1-0.7,0.1-1,0.2s-0.6,0.1-0.9,0.1c-0.6,0.1-1.1,0.2-1.5,0.4
	c-0.4,0.2-0.8,0.4-1.1,0.7c-0.3,0.3-0.4,0.7-0.4,1.2c0,0.7,0.3,1.2,0.8,1.6C156.8,63.6,157.5,63.8,158.2,63.8z"/>
<path class="st0" d="M183.2,67.8v-9.4h3.8v16.3h-3.7v-2.9h-0.2c-0.4,0.9-1,1.7-1.8,2.2c-0.8,0.6-1.8,0.9-3.1,0.9
	c-1.1,0-2-0.2-2.8-0.7c-0.8-0.5-1.4-1.2-1.9-2.1c-0.5-0.9-0.7-2-0.7-3.3V58.4h3.8v9.8c0,1,0.3,1.8,0.8,2.5c0.6,0.6,1.3,0.9,2.2,0.9
	c0.6,0,1.1-0.1,1.6-0.4c0.5-0.3,1-0.7,1.3-1.2C183,69.3,183.2,68.6,183.2,67.8z"/>
<path class="st0" d="M191.4,59.8v9.5h-3.8V53.1h3.6v2.8h0.2c0.4-0.9,1-1.6,1.8-2.2c0.8-0.5,1.8-0.8,3-0.8c1.1,0,2.1,0.2,2.9,0.7
	c0.8,0.5,1.5,1.2,1.9,2.1c0.5,0.9,0.7,2,0.7,3.3v10.3H198v-9.8c0-1.1-0.3-1.9-0.8-2.6c-0.6-0.6-1.3-0.9-2.3-0.9
	c-0.7,0-1.3,0.1-1.8,0.4c-0.5,0.3-0.9,0.7-1.2,1.3C191.6,58.4,191.4,59.1,191.4,59.8z"/>
<path class="st0" d="M213.2,77.8c-1.6,0-3-0.4-4.1-1.1c-1.1-0.7-2-1.7-2.7-3c-0.6-1.3-0.9-2.7-0.9-4.4c0-1.7,0.3-3.1,0.9-4.4
	c0.6-1.3,1.5-2.3,2.7-3c1.2-0.7,2.5-1.1,4.1-1.1c1.3,0,2.5,0.2,3.5,0.7c1,0.5,1.8,1.2,2.4,2c0.6,0.9,0.9,1.9,1,3.1h-3.6
	c-0.1-0.8-0.5-1.4-1-2c-0.5-0.5-1.3-0.8-2.2-0.8c-0.8,0-1.5,0.2-2,0.6c-0.6,0.4-1,1-1.4,1.8c-0.3,0.8-0.5,1.7-0.5,2.8
	c0,1.1,0.2,2.1,0.5,2.9c0.3,0.8,0.8,1.4,1.4,1.8c0.6,0.4,1.3,0.6,2.1,0.6c0.6,0,1.1-0.1,1.5-0.3c0.4-0.2,0.8-0.5,1.1-0.9
	c0.3-0.4,0.5-0.9,0.6-1.5h3.6c-0.1,1.1-0.4,2.2-1,3.1c-0.6,0.9-1.4,1.6-2.4,2.1C215.7,77.5,214.5,77.8,213.2,77.8z"/>
<path class="st0" d="M285.7,89.9v9.5h-3.8V77.8h3.7v8.2h0.2c0.4-0.9,1-1.6,1.8-2.2c0.8-0.5,1.8-0.8,3-0.8c1.1,0,2.1,0.2,2.9,0.7
	c0.8,0.5,1.5,1.2,1.9,2.1c0.5,0.9,0.7,2,0.7,3.3v10.3h-3.8v-9.8c0-1.1-0.3-1.9-0.8-2.6c-0.6-0.6-1.3-0.9-2.3-0.9
	c-0.7,0-1.3,0.1-1.8,0.4c-0.5,0.3-0.9,0.7-1.2,1.3C285.9,88.5,285.7,89.1,285.7,89.9z"/>
<linearGradient id="SVGID_1_" gradientUnits="userSpaceOnUse" x1="-35.6305" y1="36.5968" x2="-26.1048" y2="38.2033" gradientTransform="matrix(1 0 0 -1 0 30)">
	<stop  offset="0" style="stop-color:#894CFC"/>
	<stop  offset="1" style="stop-color:#7336E4"/>
</linearGradient>
<path class="st1" d="M-40.2-11.6c3.5-4.5,10.4-5.7,16.3-4.1C-36.3-15.5-42.7-1.9-35.8,2.4c0,0-6.4-0.6-7-5.6
	C-43.5-8.3-40.2-11.6-40.2-11.6z"/>
<linearGradient id="SVGID_00000088826670323560730660000004300595432238225587_" gradientUnits="userSpaceOnUse" x1="-51.0665" y1="30.4445" x2="-41.5408" y2="32.051" gradientTransform="matrix(1 0 0 -1 0 30)">
	<stop  offset="0" style="stop-color:#894CFC"/>
	<stop  offset="1" style="stop-color:#7336E4"/>
</linearGradient>
<path style="fill:url(#SVGID_00000088826670323560730660000004300595432238225587_);" d="M-55.9-7c0,0-3.2,3.4-2.6,8.4
	c0.6,5,7,5.6,7,5.6c-2-1.3-2.9-3.3-2.8-5.6C-56.4,0-57.6-4.7-55.9-7z"/>
<linearGradient id="SVGID_00000074421702738809743000000018407499023346525598_" gradientUnits="userSpaceOnUse" x1="-40.124" y1="43.9494" x2="-30.5983" y2="45.5559" gradientTransform="matrix(1 0 0 -1 0 30)">
	<stop  offset="0" style="stop-color:#894CFC"/>
	<stop  offset="1" style="stop-color:#7336E4"/>
</linearGradient>
<path style="fill:url(#SVGID_00000074421702738809743000000018407499023346525598_);" d="M-23.1-19.7c-5.2-4.5-14.3,3-16.1,6.9
	c4.5-6.9,15.3-3.5,15.6,1C-21.1-15-23.1-19.7-23.1-19.7z"/>
<linearGradient id="SVGID_00000052095529339748993210000003490916449024625066_" gradientUnits="userSpaceOnUse" x1="3.6599" y1="72.0951" x2="13.1856" y2="73.7016" gradientTransform="matrix(1 0 0 -1 0 30)">
	<stop  offset="0" style="stop-color:#894CFC"/>
	<stop  offset="1" style="stop-color:#7336E4"/>
</linearGradient>
<path style="fill:url(#SVGID_00000052095529339748993210000003490916449024625066_);" d="M20.7-47.8c-2-1.7-4.6-1.7-7.2-0.7
	c4.4-1.1,6.3,3,4.8,5.6c1.1,0.8,1.8,1.9,1.9,3C22.7-43.1,20.7-47.8,20.7-47.8z"/>
<linearGradient id="SVGID_00000070809727762832762280000009607936828065652364_" gradientUnits="userSpaceOnUse" x1="27.7129" y1="-43.6329" x2="37.2386" y2="-42.0264" gradientTransform="matrix(1 0 0 -1 0 30)">
	<stop  offset="0" style="stop-color:#894CFC"/>
	<stop  offset="1" style="stop-color:#7336E4"/>
</linearGradient>
<path style="fill:url(#SVGID_00000070809727762832762280000009607936828065652364_);" d="M21.4,75.5c2.6,2.6,6.3,4.2,10.3,4.2
	c8,0,14.5-6.3,14.5-14.2c0-0.6-0.3-1.3-0.3-1.9C35.3,73,24.6,75.1,21.4,75.5z"/>
<linearGradient id="SVGID_00000059289695833657853960000016990500938909271694_" gradientUnits="userSpaceOnUse" x1="-64.7215" y1="-14.178" x2="-55.1958" y2="-12.5715" gradientTransform="matrix(1 0 0 -1 0 30)">
	<stop  offset="0" style="stop-color:#894CFC"/>
	<stop  offset="1" style="stop-color:#7336E4"/>
</linearGradient>
<path style="fill:url(#SVGID_00000059289695833657853960000016990500938909271694_);" d="M-70.3,45.8c2.5,2.5,5.9,4,9.7,4
	c7.5,0,13.7-6,13.7-13.3c0-0.6,0-1.2-0.1-1.7C-57,43.5-67.3,45.4-70.3,45.8z"/>
<linearGradient id="SVGID_00000045585976753681011840000015920577525855834251_" gradientUnits="userSpaceOnUse" x1="65.6935" y1="-49.0408" x2="75.2192" y2="-47.4343" gradientTransform="matrix(1 0 0 -1 0 30)">
	<stop  offset="0" style="stop-color:#894CFC"/>
	<stop  offset="1" style="stop-color:#7336E4"/>
</linearGradient>
<path style="fill:url(#SVGID_00000045585976753681011840000015920577525855834251_);" d="M84.6,72.9c0-0.6-0.3-1.3-0.3-1.9
	c-10.6,9.4-21.3,11.5-24.5,11.9c0.7,0.7,1.4,1.3,2.2,1.8c4.6-0.3,15.9-4.9,22.5-10.2C84.6,73.9,84.6,73.4,84.6,72.9z"/>
<linearGradient id="SVGID_00000118370829449316243770000005014640987958910595_" gradientUnits="userSpaceOnUse" x1="1.9937" y1="-42.9036" x2="11.5194" y2="-41.2971" gradientTransform="matrix(1 0 0 -1 0 30)">
	<stop  offset="0" style="stop-color:#894CFC"/>
	<stop  offset="1" style="stop-color:#7336E4"/>
</linearGradient>
<path style="fill:url(#SVGID_00000118370829449316243770000005014640987958910595_);" d="M20.5,64.9c0.5,1.1-7.5,5.2-8.9,5.9
	c-9.5,4.7-18.4,6.7-19.9,4.4c-0.5-0.8-0.1-1.9,1.2-3.3c-1.9,1.7-2.3,3.2-1.5,4.4C-6.2,79.9,2.8,78.5,12,74
	C16.3,71.8,20.9,70.3,20.5,64.9z"/>
<linearGradient id="SVGID_00000043443492300564788970000000539294187961277102_" gradientUnits="userSpaceOnUse" x1="5.9662" y1="-53.243" x2="15.4919" y2="-51.6365" gradientTransform="matrix(1 0 0 -1 0 30)">
	<stop  offset="0" style="stop-color:#894CFC"/>
	<stop  offset="1" style="stop-color:#7336E4"/>
</linearGradient>
<path style="fill:url(#SVGID_00000043443492300564788970000000539294187961277102_);" d="M20.3,74.8c1,0.2,2.4,1,2.2,2.2
	c0,0.3-0.1,0.6-0.2,0.8c-2.9,7.2-14,13-19.9,9.5c-3.1-1.8-4.8-7.8-1.6-11.8c-4.8,5.3-4.3,12.3-1.7,15.2c3.2,3.6,15.3-0.6,26.6-8.1
	C25.8,80.5,24.1,75.5,20.3,74.8z"/>
<text transform="matrix(1.0672 0 0 1 33.8468 20.9687)" class="st10 st11 st12">Orphin Chemisry</text>
<image style="overflow:visible;" width="3000" height="3000" xlink:href="logo copy.png"  transform="matrix(1.166667e-02 0 0 1.166667e-02 -5.080223e-03 -3.6676)">
</image>
</svg>
